<svg xmlns="http://www.w3.org/2000/svg" width="20" height="20" viewBox="0 0 20 20">
  <defs>
    <style>
      .cls-1 {
        fill: #c00130;
        fill-rule: evenodd;
      }
    </style>
  </defs>
  <path id="error.svg" class="cls-1" d="M1071,357a10,10,0,1,0,10,10A10.014,10.014,0,0,0,1071,357Zm0,18.286a8.286,8.286,0,1,1,8.29-8.286A8.3,8.3,0,0,1,1071,375.286Zm3.87-12.155a0.854,0.854,0,0,0-1.21,0l-2.66,2.658-2.66-2.658a0.854,0.854,0,0,0-1.21,0,0.866,0.866,0,0,0,0,1.212l2.66,2.658-2.66,2.657a0.858,0.858,0,0,0,.61,1.464,0.826,0.826,0,0,0,.6-0.252l2.66-2.657,2.66,2.657a0.826,0.826,0,0,0,.6.252,0.858,0.858,0,0,0,.61-1.464L1072.21,367l2.66-2.658A0.866,0.866,0,0,0,1074.87,363.131Z" transform="translate(-1061 -357)"/>
</svg>
