<svg xmlns="http://www.w3.org/2000/svg" viewBox="0 0 161 184" class="filter-icon"><rect width="100%" height="100%" fill="none"></rect> <g class="currentLayer"><path d="M64.722 171.782v-12.017L37.828 132.88l-26.894-26.887V86.98H.176V76.222H32.45V.202H104.54l12.005 12.02 12.004 12.02v51.98H160.823V86.98h-10.757v19.012l-26.894 26.887-26.894 26.886v24.033H64.722zm21.515-8.24v-9.498l22.766-22.775 22.766-22.774H29.23l22.767 22.774 22.766 22.775v18.996h11.474zm53.788-71.183v-5.38H20.975v10.758h119.05zM118.51 59.727V43.232H86.237V10.96H42.49v65.262h76.02zm-64.545.359v-5.379h53.07v10.758h-53.07zm0-22.232v-5.38h20.798v10.758H53.965zm64.545-6.625c0-1.932-18.644-20.27-20.609-20.27-1.614 0-1.623.06-1.623 10.758v10.758h11.116c10.076 0 11.116-.117 11.116-1.246z"></path></g></svg>