<svg xmlns="http://www.w3.org/2000/svg" viewBox="0 0 6.615 5.821">
  <path d="M.834 5.792a.23.23 0 0 1-.066-.074c-.02-.041-.022-.133-.019-1.52.003-1.424.004-1.476.028-1.51.073-.108.247-.094.296.024.015.035.018.272.018 1.403v1.361h1.352l.005-.802c.006-.888.004-.86.094-1.044a.856.856 0 0 1 .553-.447c.106-.027.305-.027.411 0 .24.061.446.228.554.447.09.184.087.156.093 1.044l.005.802H5.51v-1.36c0-1.132.003-1.369.018-1.404.05-.118.223-.132.297-.024.023.034.024.086.027 1.51.003 1.387.002 1.479-.019 1.52a.229.229 0 0 1-.066.074l-.043.029h-.887c-.971 0-.944.002-.996-.075-.022-.031-.023-.093-.03-.948l-.006-.914-.048-.096a.493.493 0 0 0-.25-.245c-.077-.037-.097-.04-.206-.04-.11 0-.13.004-.207.04a.492.492 0 0 0-.25.245l-.048.096-.006.914c-.006.855-.008.917-.03.948-.052.077-.024.075-.995.075H.878zm-.71-3.209C.022 2.54 0 2.395.084 2.315.121 2.278 3.032.145 3.19.038c.083-.056.138-.056.221 0 .158.107 3.069 2.24 3.107 2.277.084.081.06.225-.043.269-.06.024-.107.023-.154-.005-.02-.013-.705-.512-1.52-1.108a77.34 77.34 0 0 0-1.5-1.083c-.01 0-.686.487-1.501 1.083C.985 2.067.3 2.566.28 2.58c-.045.027-.1.03-.156.005z"/>
</svg>
