<svg xmlns="http://www.w3.org/2000/svg" width="18" height="20" viewBox="0 0 18 20">
  <metadata><?xpacket begin="﻿" id="W5M0MpCehiHzreSzNTczkc9d"?>
<x:xmpmeta xmlns:x="adobe:ns:meta/" x:xmptk="Adobe XMP Core 5.6-c142 79.160924, 2017/07/13-01:06:39        ">
   <rdf:RDF xmlns:rdf="http://www.w3.org/1999/02/22-rdf-syntax-ns#">
      <rdf:Description rdf:about=""/>
   </rdf:RDF>
</x:xmpmeta>
<?xpacket end="w"?></metadata>
<defs>
    <style>
      .cls-1 {
        fill: #fff;
        fill-rule: evenodd;
      }
    </style>
  </defs>
  <path id="Forma_1" data-name="Forma 1" class="cls-1" d="M837.784,364.594a0.783,0.783,0,0,0-.785-0.781h-8.081a0.781,0.781,0,1,0,0,1.562H837A0.784,0.784,0,0,0,837.784,364.594Zm-8.866,2.344a0.781,0.781,0,1,0,0,1.562h4.908a0.781,0.781,0,1,0,0-1.562h-4.908Zm1.844,7.5h-2.624a1.567,1.567,0,0,1-1.569-1.562v-13.75a1.568,1.568,0,0,1,1.569-1.563h9.646a1.568,1.568,0,0,1,1.569,1.563v4.805a0.785,0.785,0,0,0,1.569,0v-4.805A3.135,3.135,0,0,0,837.784,356h-9.646A3.135,3.135,0,0,0,825,359.125v13.75A3.135,3.135,0,0,0,828.138,376h2.624A0.782,0.782,0,1,0,830.762,374.437Zm11.549-7.126a2.364,2.364,0,0,0-3.328,0l-4.307,4.279a0.78,0.78,0,0,0-.2.326l-0.938,3.076a0.782,0.782,0,0,0,.75,1.008,0.792,0.792,0,0,0,.21-0.028l3.166-.874a0.786,0.786,0,0,0,.345-0.2l4.3-4.272A2.339,2.339,0,0,0,842.311,367.311Zm-5.26,6.336-1.593.44,0.466-1.529,2.906-2.888,1.11,1.106Zm4.151-4.126-0.152.151-1.109-1.105,0.151-.151a0.789,0.789,0,0,1,1.11,0A0.78,0.78,0,0,1,841.2,369.521Zm-4.2-8.833h-8.081a0.781,0.781,0,1,0,0,1.562H837A0.781,0.781,0,1,0,837,360.688Z" transform="translate(-825 -356)"/>
</svg>
