<?xml version="1.0" encoding="utf-8"?>
<!-- Generator: Adobe Illustrator 20.1.0, SVG Export Plug-In . SVG Version: 6.00 Build 0)  -->
<svg version="1.1" id="Слой_1" xmlns="http://www.w3.org/2000/svg" xmlns:xlink="http://www.w3.org/1999/xlink" x="0px" y="0px"
	 viewBox="0 0 20 23.6" style="enable-background:new 0 0 20 23.6;" xml:space="preserve">
<path class="st0" d="M19.7,5.7c-0.1-0.1-5.4-5.4-5.5-5.5C14.1,0.1,13.9,0,13.6,0H0.9C0.4,0,0,0.4,0,0.9v21.8c0,0.5,0.4,0.9,0.9,0.9
	h18.2c0.5,0,0.9-0.4,0.9-0.9V6.4C20,6.1,19.9,5.9,19.7,5.7z M14.6,3.2l2.3,2.3h-2.3V3.2z M1.8,21.8V1.8h10.9v4.5
	c0,0.5,0.4,0.9,0.9,0.9h4.5v14.5H1.8z M16.4,11.8c0,0.5-0.4,0.9-0.9,0.9H4.6c-0.5,0-0.9-0.4-0.9-0.9s0.4-0.9,0.9-0.9h10.9
	C16,10.9,16.4,11.3,16.4,11.8z M3.6,4.6C3.6,4,4,3.6,4.6,3.6h3.6c0.5,0,0.9,0.4,0.9,0.9S8.7,5.5,8.2,5.5H4.6C4,5.5,3.6,5.1,3.6,4.6z
	 M16.4,17.3c0,0.5-0.4,0.9-0.9,0.9H4.6c-0.5,0-0.9-0.4-0.9-0.9c0-0.5,0.4-0.9,0.9-0.9h10.9C16,16.3,16.4,16.8,16.4,17.3z"/>
</svg>
