<?xml version="1.0" encoding="utf-8"?>
<!-- Generator: Adobe Illustrator 20.1.0, SVG Export Plug-In . SVG Version: 6.00 Build 0)  -->
<svg version="1.1" id="Capa_1" xmlns="http://www.w3.org/2000/svg" xmlns:xlink="http://www.w3.org/1999/xlink" x="0px" y="0px"
	 viewBox="0 0 22 16.2" style="enable-background:new 0 0 22 16.2;" xml:space="preserve">
<g>
	<path class="st0" d="M21.8,8.5c-0.2-0.4-0.4-0.6-0.8-0.8c-0.3-0.2-0.7-0.3-1.1-0.3h-2.2V5.5c0-0.7-0.3-1.3-0.8-1.8
		C16.4,3.2,15.8,3,15.1,3H8.9V2.6c0-0.7-0.3-1.3-0.8-1.8C7.6,0.3,7,0,6.3,0H2.6C1.9,0,1.3,0.3,0.8,0.8C0.3,1.3,0,1.9,0,2.6v11.1
		c0,0.7,0.3,1.3,0.8,1.8c0.5,0.5,1.1,0.8,1.8,0.8h12.5c0.5,0,1.1-0.1,1.6-0.4c0.6-0.3,1-0.6,1.3-1l3.4-4.2c0.4-0.4,0.5-0.9,0.5-1.4
		C22,9,21.9,8.7,21.8,8.5z M1.5,2.6c0-0.3,0.1-0.6,0.3-0.8C2,1.6,2.3,1.5,2.6,1.5h3.7c0.3,0,0.6,0.1,0.8,0.3C7.3,2,7.4,2.3,7.4,2.6
		v0.7c0,0.3,0.1,0.6,0.3,0.8s0.5,0.3,0.8,0.3h6.6c0.3,0,0.6,0.1,0.8,0.3c0.2,0.2,0.3,0.5,0.3,0.8v1.8H7.4c-0.5,0-1.1,0.1-1.6,0.4
		c-0.6,0.3-1,0.6-1.3,1l-3,3.6L1.5,2.6L1.5,2.6z M20.3,9.7l-3.4,4.2c-0.2,0.2-0.5,0.4-0.8,0.6c-0.4,0.2-0.7,0.3-1,0.3H2.6
		c-0.4,0-0.6-0.1-0.6-0.4c0-0.1,0.1-0.3,0.2-0.5l3.4-4.2C5.8,9.5,6,9.3,6.4,9.1c0.3-0.2,0.7-0.2,1-0.2h12.5c0.4,0,0.6,0.1,0.6,0.4
		C20.5,9.4,20.5,9.5,20.3,9.7z"/>
</g>
</svg>
