<svg xmlns="http://www.w3.org/2000/svg" width="20" height="19" viewBox="0 0 20 19">
  <metadata><?xpacket begin="﻿" id="W5M0MpCehiHzreSzNTczkc9d"?>
<x:xmpmeta xmlns:x="adobe:ns:meta/" x:xmptk="Adobe XMP Core 5.6-c142 79.160924, 2017/07/13-01:06:39        ">
   <rdf:RDF xmlns:rdf="http://www.w3.org/1999/02/22-rdf-syntax-ns#">
      <rdf:Description rdf:about=""/>
   </rdf:RDF>
</x:xmpmeta>
                                                                                                    
                                                                                                    
                                                                                                    
                                                                                                    
                                                                                                    
                                                                                                    
                                                                                                    
                                                                                                    
                                                                                                    
                                                                                                    
                                                                                                    
                                                                                                    
                                                                                                    
                                                                                                    
                                                                                                    
                                                                                                    
                                                                                                    
                                                                                                    
                                                                                                    
                                                                                                    
                           
<?xpacket end="w"?></metadata>
<defs>
    <style>
      .cls-1 {
        fill: #86d2a1;
        fill-rule: evenodd;
      }
    </style>
  </defs>
  <path id="Forma_1" data-name="Forma 1" class="cls-1" d="M1476.54,440.618c-0.07.08-.12,0.132-0.16,0.171C1476.45,440.716,1476.54,440.618,1476.54,440.618Zm3.48,0.611a1.6,1.6,0,0,1,.39,1.075,1.538,1.538,0,0,1-.27.855,2.224,2.224,0,0,1-.39.449l-0.53.5a3.082,3.082,0,0,0-1.22,2.728h1.19a2.919,2.919,0,0,1,.19-1.206,3.608,3.608,0,0,1,.83-1,9.017,9.017,0,0,0,1.17-1.227,1.894,1.894,0,0,0,.29-1.089,2.364,2.364,0,0,0-.79-1.819,3.042,3.042,0,0,0-5.15,2.319h1.19a2.887,2.887,0,0,1,.27-1.26,1.6,1.6,0,0,1,1.54-.785A1.615,1.615,0,0,1,1480.02,441.229Zm8.99,3.265a10.018,10.018,0,1,0-10,9.5A9.763,9.763,0,0,0,1489.01,444.494Zm-19.1,0a9.107,9.107,0,1,1,9.1,8.639A8.876,8.876,0,0,1,1469.91,444.494Zm8.07,3.391h1.32V449.2h-1.32v-1.316Z" transform="translate(-1469 -435)"/>
</svg>
