<svg xmlns="http://www.w3.org/2000/svg" width="28.094" height="35.157" viewBox="0 0 28.094 35.157">
  <metadata><?xpacket begin="﻿" id="W5M0MpCehiHzreSzNTczkc9d"?>
<x:xmpmeta xmlns:x="adobe:ns:meta/" x:xmptk="Adobe XMP Core 5.6-c142 79.160924, 2017/07/13-01:06:39        ">
   <rdf:RDF xmlns:rdf="http://www.w3.org/1999/02/22-rdf-syntax-ns#">
      <rdf:Description rdf:about=""/>
   </rdf:RDF>
</x:xmpmeta>
                                                                                                    
                                                                                                    
                                                                                                    
                                                                                                    
                                                                                                    
                                                                                                    
                                                                                                    
                                                                                                    
                                                                                                    
                                                                                                    
                                                                                                    
                                                                                                    
                                                                                                    
                                                                                                    
                                                                                                    
                                                                                                    
                                                                                                    
                                                                                                    
                                                                                                    
                                                                                                    
                           
<?xpacket end="w"?></metadata>
<defs>
    <style>
      .cls-1 {
        fill: #fff;
        fill-rule: evenodd;
      }
    </style>
  </defs>
  <path id="Forma_1" data-name="Forma 1" class="cls-1" d="M84.551,323.585H75.012a0.687,0.687,0,0,0,0,1.373h9.539A0.687,0.687,0,0,0,84.551,323.585Zm-2.318,3.5a0.646,0.646,0,0,0-.936,0,0.7,0.7,0,0,0,0,.971,0.646,0.646,0,0,0,.936,0A0.7,0.7,0,0,0,82.233,327.081ZM75.48,316.3a0.646,0.646,0,0,0-.937,0,0.7,0.7,0,0,0,0,.971,0.646,0.646,0,0,0,.937,0A0.7,0.7,0,0,0,75.48,316.3Zm3.5,10.577H75.012a0.687,0.687,0,0,0,0,1.373h3.966A0.687,0.687,0,0,0,78.979,326.88ZM84.551,331H75.012a0.687,0.687,0,0,0,0,1.373h9.539A0.687,0.687,0,0,0,84.551,331Zm-2.318,3.5a0.644,0.644,0,0,0-.936,0,0.7,0.7,0,0,0,0,.97,0.646,0.646,0,0,0,.936,0A0.7,0.7,0,0,0,82.233,334.5Zm-3.254-.2H75.012a0.687,0.687,0,0,0,0,1.373h3.966A0.687,0.687,0,0,0,78.979,334.294Zm5.572,4.119H75.012a0.687,0.687,0,0,0,0,1.373h9.539A0.687,0.687,0,0,0,84.551,338.413Zm-2.318,3.5a0.646,0.646,0,0,0-.936,0,0.7,0.7,0,0,0,0,.97,0.644,0.644,0,0,0,.936,0A0.7,0.7,0,0,0,82.233,341.91Zm-3.254-.2H75.012a0.687,0.687,0,0,0,0,1.373h3.966A0.687,0.687,0,0,0,78.979,341.709Zm6.847-25.882h-5.06a3.986,3.986,0,0,0-2.808-1.167h-0.58a2.609,2.609,0,0,0-4.732,0H72.064a3.986,3.986,0,0,0-2.808,1.167H64.2a3.294,3.294,0,0,0-3.23,3.348v25.777A3.294,3.294,0,0,0,64.2,348.3H85.826a3.294,3.294,0,0,0,3.23-3.347V319.175A3.294,3.294,0,0,0,85.826,315.827Zm-13.761.206H73.1a0.666,0.666,0,0,0,.639-0.5,1.313,1.313,0,0,1,2.553,0,0.667,0.667,0,0,0,.639.5h1.031a2.794,2.794,0,0,1,2.739,2.609H69.325A2.794,2.794,0,0,1,72.065,316.033Zm15.666,28.919a1.943,1.943,0,0,1-1.905,1.974H64.2a1.943,1.943,0,0,1-1.905-1.974V319.175A1.943,1.943,0,0,1,64.2,317.2h4.13a4.332,4.332,0,0,0-.338,1.682v0.446a0.675,0.675,0,0,0,.663.687H81.37a0.675,0.675,0,0,0,.662-0.687v-0.446a4.334,4.334,0,0,0-.338-1.682h4.131a1.943,1.943,0,0,1,1.905,1.975v25.777ZM70.8,323.42a0.646,0.646,0,0,0-.937,0l-2.833,2.935-0.873-.9a0.646,0.646,0,0,0-.937,0,0.7,0.7,0,0,0,0,.971l1.341,1.39a0.646,0.646,0,0,0,.937,0l3.3-3.421A0.7,0.7,0,0,0,70.8,323.42Zm-1.617,14.993H66a0.675,0.675,0,0,0-.662.687V342.4a0.675,0.675,0,0,0,.662.687h3.18a0.675,0.675,0,0,0,.662-0.687V339.1A0.675,0.675,0,0,0,69.183,338.413Zm-0.662,3.3H66.666v-1.923h1.855v1.923ZM69.183,331H66a0.675,0.675,0,0,0-.662.686v3.3a0.675,0.675,0,0,0,.662.686h3.18a0.674,0.674,0,0,0,.662-0.686v-3.3A0.674,0.674,0,0,0,69.183,331Zm-0.662,3.295H66.666v-1.922h1.855v1.922Z" transform="translate(-60.969 -313.156)"/>
</svg>
