<svg xmlns="http://www.w3.org/2000/svg" width="31" height="30.938" viewBox="0 0 31 30.938">
<defs>
    <style>
      .cls-1 {
        fill: #fff;
        fill-rule: evenodd;
      }
    </style>
  </defs>
  <path id="Forma_1" data-name="Forma 1" class="cls-1" d="M85.488,118.517A15.49,15.49,0,0,0,59.95,134.712a0.631,0.631,0,0,0,1.187-.427,14.239,14.239,0,1,1,23.712,4.961l-0.091.1c-0.053.056-.106,0.113-0.162,0.169a14.269,14.269,0,0,1-20.135,0l-0.087-.09c0-.058,0-0.115,0-0.172,0-.127,0-0.253.007-0.379,0-.042,0-0.083.007-0.125,0-.084.008-0.168,0.014-0.251,0-.05.009-0.1,0.013-0.148,0.007-.075.013-0.15,0.021-0.225,0.006-.053.013-0.105,0.02-0.157,0.009-.071.017-0.142,0.028-0.213,0.008-.054.017-0.107,0.026-0.16,0.011-.069.022-0.138,0.035-0.206s0.021-.108.032-0.162,0.027-.134.042-0.2,0.025-.108.038-0.162,0.031-.131.048-0.2,0.03-.108.044-0.161,0.036-.129.055-0.193,0.033-.107.05-0.16,0.04-.126.062-0.188,0.037-.106.056-0.158,0.045-.125.068-0.186,0.041-.1.061-0.156,0.049-.122.075-0.182,0.044-.1.067-0.154,0.053-.119.081-0.179,0.048-.1.072-0.15,0.058-.118.088-0.176,0.051-.1.077-0.148,0.062-.116.094-0.173l0.082-.144c0.033-.057.066-0.113,0.1-0.17l0.087-.141c0.035-.055.071-0.111,0.107-0.166l0.092-.137c0.037-.055.075-0.109,0.113-0.162s0.064-.09.1-0.134l0.12-.159,0.1-.13c0.041-.052.084-0.1,0.126-0.155s0.069-.084.1-0.125,0.088-.1.133-0.152l0.108-.121,0.139-.147,0.112-.117L67.423,132l0.115-.112c0.05-.048.1-0.094,0.153-0.14l0.117-.106c0.053-.047.107-0.092,0.161-0.137l0.119-.1c0.056-.046.113-0.09,0.17-0.134l0.119-.094c0.06-.045.121-0.089,0.183-0.133l0.115-.084c0.068-.047.137-0.093,0.205-0.139l0.1-.068c0.09-.058.181-0.115,0.273-0.17l0.043-.027c0.106-.063.214-0.125,0.323-0.185,0.037-.021.076-0.04,0.113-0.06,0.072-.038.145-0.077,0.218-0.114,0.047-.024.1-0.046,0.143-0.069s0.12-.059.181-0.087a6.146,6.146,0,0,0,8.5,0,10.264,10.264,0,0,1,5.05,5.132,0.631,0.631,0,0,0,1.155-.507,11.358,11.358,0,0,0-5.364-5.616,6.143,6.143,0,0,0-5.093-9.606,0.63,0.63,0,1,0,0,1.26,4.884,4.884,0,0,1,3.636,8.163h0a4.888,4.888,0,0,1-7.272,0h0a4.875,4.875,0,0,1,.19-6.748,0.63,0.63,0,0,0-.887-0.9,6.132,6.132,0,0,0-.761,7.824l-0.018.01c-0.049.024-.1,0.05-0.146,0.075-0.075.039-.15,0.077-0.224,0.118-0.052.028-.1,0.058-0.155,0.087-0.069.039-.138,0.077-0.206,0.118l-0.157.095c-0.065.04-.13,0.08-0.195,0.122s-0.1.068-.156,0.1l-0.186.126-0.154.109c-0.06.043-.12,0.087-0.179,0.131l-0.15.115c-0.058.045-.115,0.09-0.172,0.136s-0.1.08-.147,0.12l-0.166.141-0.142.125c-0.054.049-.108,0.1-0.16,0.148s-0.092.085-.137,0.129-0.1.1-.156,0.153-0.088.088-.131,0.133-0.1.106-.151,0.16l-0.125.135c-0.05.056-.1,0.112-0.147,0.169s-0.079.09-.117,0.136-0.1.119-.146,0.179-0.073.089-.108,0.134c-0.051.065-.1,0.132-0.149,0.2-0.031.041-.063,0.082-0.093,0.124-0.062.086-.122,0.174-0.182,0.262l-0.048.068c-0.074.111-.147,0.223-0.217,0.337-0.024.039-.047,0.079-0.071,0.118-0.046.076-.091,0.151-0.135,0.227-0.027.048-.053,0.1-0.08,0.145-0.038.069-.077,0.138-0.114,0.209-0.027.051-.053,0.1-0.08,0.156-0.034.068-.069,0.136-0.1,0.2s-0.051.109-.076,0.164-0.062.135-.092,0.2-0.048.113-.072,0.169-0.057.136-.084,0.2-0.045.115-.067,0.173-0.051.137-.076,0.207-0.041.117-.061,0.176-0.046.139-.068,0.209-0.037.12-.055,0.179-0.041.142-.061,0.213-0.033.12-.049,0.181-0.036.144-.053,0.216-0.029.121-.042,0.182-0.031.147-.046,0.221-0.024.121-.035,0.182-0.026.151-.039,0.227c-0.01.059-.02,0.119-0.029,0.179-0.012.079-.021,0.157-0.031,0.236-0.007.058-.015,0.117-0.021,0.175-0.009.083-.016,0.166-0.023,0.249,0,0.055-.011.11-0.015,0.166-0.007.093-.011,0.186-0.016,0.279,0,0.046-.006.092-0.007,0.139-0.005.139-.008,0.28-0.008,0.421s0.005,0.3.011,0.454a0.628,0.628,0,0,0,.014.108,0.078,0.078,0,0,1,0,.008,0.628,0.628,0,0,0,.032.1l0,0.01a0.671,0.671,0,0,0,.048.09l0.007,0.01a0.587,0.587,0,0,0,.063.079l0,0.006,0.083,0.088c0.063,0.068.126,0.134,0.191,0.2a15.535,15.535,0,0,0,21.92,0c0.065-.066.128-0.133,0.191-0.2l0.083-.088A15.456,15.456,0,0,0,85.488,118.517Z" transform="translate(-59.031 -114)"/>
</svg>
