<?xml version="1.0" encoding="utf-8"?>
<!-- Generator: Adobe Illustrator 20.1.0, SVG Export Plug-In . SVG Version: 6.00 Build 0)  -->
<svg version="1.1" id="Слой_1" xmlns="http://www.w3.org/2000/svg" xmlns:xlink="http://www.w3.org/1999/xlink" x="0px" y="0px"
	 viewBox="0 0 20 20" style="enable-background:new 0 0 20 20;" xml:space="preserve">

<path class="st0" d="M9.7,14.1c0.4,0,0.8,0.3,0.8,0.8s-0.3,0.8-0.8,0.8H8.6c-0.4,0-0.8-0.3-0.8-0.8s0.3-0.8,0.8-0.8H9.7z M16.1,9.9
	c0-0.4-0.3-0.8-0.8-0.8H8.6c-0.4,0-0.8,0.3-0.8,0.8s0.3,0.8,0.8,0.8h6.7C15.7,10.7,16.1,10.3,16.1,9.9z M8.6,6h6.7
	c0.4,0,0.8-0.3,0.8-0.8s-0.3-0.8-0.8-0.8H8.6c-0.4,0-0.8,0.3-0.8,0.8S8.2,6,8.6,6z M5.5,14.1H4.7c-0.4,0-0.8,0.3-0.8,0.8
	s0.3,0.8,0.8,0.8h0.8c0.4,0,0.8-0.3,0.8-0.8S5.9,14.1,5.5,14.1z M5.5,9.1H4.7c-0.4,0-0.8,0.3-0.8,0.8s0.3,0.8,0.8,0.8h0.8
	c0.4,0,0.8-0.3,0.8-0.8S5.9,9.1,5.5,9.1z M5.5,4.4H4.7c-0.4,0-0.8,0.3-0.8,0.8S4.3,6,4.7,6h0.8c0.4,0,0.8-0.3,0.8-0.8
	S5.9,4.4,5.5,4.4z M19.8,18.7c0.3,0.3,0.3,0.8,0,1.1c-0.2,0.2-0.4,0.2-0.6,0.2s-0.4-0.1-0.6-0.2l-1.3-1.3c-0.5,0.3-1.1,0.5-1.8,0.5
	c-1.9,0-3.5-1.6-3.5-3.5s1.6-3.5,3.5-3.5s3.5,1.6,3.5,3.5c0,0.7-0.2,1.4-0.6,1.9L19.8,18.7z M15.5,17.4c1.1,0,2-0.9,2-2s-0.9-2-2-2
	s-2,0.9-2,2S14.5,17.4,15.5,17.4z M16.9,0H3.1C1.4,0,0,1.4,0,3.1v13.8C0,18.6,1.4,20,3.1,20h8c0.4,0,0.8-0.3,0.8-0.8
	s-0.3-0.8-0.8-0.8h-8c-0.9,0-1.6-0.7-1.6-1.6V3.1c0-0.9,0.7-1.6,1.6-1.6h13.7c0.9,0,1.6,0.7,1.6,1.6v7.7c0,0.4,0.3,0.8,0.8,0.8
	c0.4,0,0.8-0.3,0.8-0.8V3.1C20,1.4,18.6,0,16.9,0z"/>
</svg>
