<svg xmlns="http://www.w3.org/2000/svg" viewBox="0 0 5.821 5.821">
  <path d="M2.56 5.811a.354.354 0 0 1-.17-.101c-.073-.075-.083-.103-.127-.366l-.038-.227-.094-.034a2.077 2.077 0 0 1-.238-.1c-.027-.013-.053-.022-.058-.02l-.181.128a2.664 2.664 0 0 1-.222.146c-.046.022-.052.023-.14.023h-.09l-.062-.03c-.059-.03-.07-.04-.283-.254a2.328 2.328 0 0 1-.241-.26.364.364 0 0 1-.006-.326c.008-.017.072-.11.142-.207l.126-.176-.046-.095a2.934 2.934 0 0 1-.084-.199L.71 3.611l-.095-.017C.287 3.54.25 3.531.201 3.508a.366.366 0 0 1-.19-.238 4.797 4.797 0 0 1 .001-.677.372.372 0 0 1 .194-.24c.042-.02.183-.048.46-.092.035-.006.035-.006.05-.046a2.38 2.38 0 0 1 .106-.267l.043-.09-.133-.186a2.406 2.406 0 0 1-.148-.227.356.356 0 0 1 .043-.348C.644 1.075.751.965.865.853c.215-.212.24-.232.323-.254a.397.397 0 0 1 .248.026c.015.008.107.071.204.141l.177.128.043-.022c.08-.04.176-.081.264-.112l.087-.03.01-.05.04-.232c.037-.213.052-.253.12-.323A.384.384 0 0 1 2.57.023c.022-.004.162-.008.326-.008.317 0 .345.003.423.045a.41.41 0 0 1 .151.16c.018.037.03.088.06.27l.039.226.087.03c.1.036.186.072.266.112l.057.029.188-.134c.117-.083.205-.14.23-.15a.41.41 0 0 1 .217-.01c.09.025.105.038.332.263.119.119.226.23.238.247a.367.367 0 0 1 .02.36 3.982 3.982 0 0 1-.141.206l-.126.176.028.057c.037.073.075.165.11.262l.027.076.224.038c.194.034.23.042.276.063a.344.344 0 0 1 .184.207c.014.044.015.057.013.384l-.002.34-.028.056a.358.358 0 0 1-.166.167c-.048.023-.077.03-.28.063l-.225.038-.009.03a2.665 2.665 0 0 1-.114.281l-.04.085.122.173c.147.207.142.199.161.25a.355.355 0 0 1-.014.278c-.022.047-.04.067-.227.257-.217.22-.263.26-.33.284a.41.41 0 0 1-.215.011c-.067-.02-.097-.037-.282-.17l-.173-.124-.04.02c-.07.036-.205.093-.278.117a.641.641 0 0 0-.074.029 3.289 3.289 0 0 0-.042.22c-.02.118-.042.23-.048.246a.365.365 0 0 1-.219.219c-.04.015-.054.016-.357.017-.256.001-.324 0-.359-.008zm.618-.321c.006-.004.028-.112.056-.278.05-.292.057-.317.101-.351a.538.538 0 0 1 .121-.048c.161-.048.291-.103.416-.175.062-.036.07-.038.114-.038.03 0 .055.005.07.013.013.007.12.08.237.164.118.084.22.153.228.153.007 0 .096-.083.204-.192.144-.143.19-.195.188-.205a4.12 4.12 0 0 0-.158-.23 4.403 4.403 0 0 1-.164-.242c-.023-.054-.016-.083.061-.235a1.88 1.88 0 0 0 .146-.36.835.835 0 0 1 .033-.095.173.173 0 0 1 .09-.073c.014-.004.14-.026.277-.048.138-.023.258-.046.267-.052l.016-.01V2.92c0-.147-.003-.271-.007-.276a1.847 1.847 0 0 0-.28-.057c-.359-.06-.346-.054-.396-.221a1.934 1.934 0 0 0-.174-.414c-.042-.073-.052-.12-.034-.17.005-.015.08-.128.167-.25.087-.12.158-.227.158-.235 0-.022-.368-.39-.39-.39-.01 0-.1.06-.225.151a5.025 5.025 0 0 1-.242.168c-.047.025-.098.02-.163-.016a2.27 2.27 0 0 0-.464-.193C3.28.975 3.284.98 3.226.635a3.335 3.335 0 0 0-.054-.282 3.608 3.608 0 0 0-.556 0 3.716 3.716 0 0 0-.052.273 5.2 5.2 0 0 1-.053.287c-.024.06-.061.086-.166.116a2.073 2.073 0 0 0-.423.18c-.067.038-.11.047-.155.035a2.095 2.095 0 0 1-.25-.166 3.25 3.25 0 0 0-.237-.16c-.014-.003-.048.027-.205.184-.139.138-.189.192-.189.205 0 .01.06.1.154.232.084.119.16.229.167.245.027.059.02.085-.058.242a2.19 2.19 0 0 0-.154.398c-.017.06-.044.097-.087.119-.018.009-.12.029-.29.057l-.264.044c-.002 0-.009.005-.015.011-.01.01-.011.046-.011.279 0 .218.001.269.01.275.005.005.132.03.282.055.15.026.283.052.294.058.04.02.072.065.088.122.044.153.107.304.179.435.052.093.062.135.047.185-.005.015-.081.129-.168.252a3.02 3.02 0 0 0-.159.236c0 .015.377.393.392.393.006 0 .114-.074.24-.163.24-.172.263-.184.322-.174a.738.738 0 0 1 .124.054c.114.06.224.105.34.14.12.037.163.06.188.1.017.028.025.065.063.297.024.146.047.272.051.281l.007.016h.27c.15 0 .275-.003.28-.006zm-.484-1.337a1.23 1.23 0 0 1-.699-.377 1.245 1.245 0 0 1 .079-1.794 1.26 1.26 0 0 1 1.085-.29c.516.106.92.545.987 1.07.013.103.005.314-.015.407a1.255 1.255 0 0 1-1.437.984zm.382-.326a.926.926 0 0 0 .291-1.708.92.92 0 0 0-1.116.147.926.926 0 0 0 .476 1.561c.092.018.255.019.35 0z"/>
</svg>
