<svg xmlns="http://www.w3.org/2000/svg" viewBox="0 0 6.879 5.821">
  <path d="M1.472 5.5v-.32H0v-.496c0-.544.02-.731.106-.987.134-.402.408-.774.747-1.015l.127-.09-.098-.12a1.553 1.553 0 0 1-.359-.823C.4.672 1.287-.183 2.264-.028c.362.057.719.256.935.521l.084.103h.453L3.83.483c.22-.263.565-.454.925-.511a1.533 1.533 0 0 1 1.402.537c.342.422.438.96.263 1.47a1.468 1.468 0 0 1-.282.493l-.098.12.127.09c.342.243.612.61.747 1.015.086.256.106.443.106.987v.495H5.548v.641H1.472zm3.694-.439c-.008-.316-.017-.406-.05-.52a1.67 1.67 0 0 0-.784-1.012l-.107-.064-.1.046a1.558 1.558 0 0 1-1.23 0l-.1-.046-.107.064a1.67 1.67 0 0 0-.784 1.012c-.034.114-.042.204-.05.52l-.009.382h3.33zm-3.662-.425c.08-.515.422-1.056.847-1.338.114-.076.118-.048-.028-.228l-.064-.079-.136.012a1.524 1.524 0 0 1-.629-.1l-.175-.066-.108.06c-.324.182-.597.5-.728.85-.077.206-.106.406-.106.746v.31l.552-.006.55-.005zm5.134-.207c-.007-.302-.016-.4-.05-.521a1.694 1.694 0 0 0-.77-1.005L5.7 2.837l-.176.066a1.524 1.524 0 0 1-.628.1L4.76 2.99l-.087.108a.458.458 0 0 0-.083.127c.002.01.068.066.146.124a2.064 2.064 0 0 1 .792 1.366c0 .034.006.066.013.073.007.007.258.013.558.013h.546zM3.812 3.226c.29-.077.591-.324.724-.594A1.152 1.152 0 0 0 3.784 1a1.385 1.385 0 0 0-.548 0 1.147 1.147 0 0 0-.56 1.899c.298.316.72.438 1.136.327zm-1.779-.722a1.275 1.275 0 0 1-.039-.372c-.002-.301.027-.431.162-.708.086-.176.117-.218.277-.377.12-.12.226-.205.317-.255a.645.645 0 0 0 .137-.089c0-.025-.216-.189-.32-.24a.95.95 0 0 0-.52-.124.958.958 0 0 0-.545.129 1.179 1.179 0 0 0-.57.692c-.05.145-.05.496 0 .641a1.188 1.188 0 0 0 1.052.83h.087zm3.22.09c.403-.102.695-.38.835-.793a.953.953 0 0 0 .035-.32.953.953 0 0 0-.035-.321 1.179 1.179 0 0 0-.57-.692.958.958 0 0 0-.546-.129.95.95 0 0 0-.52.124c-.103.051-.32.215-.319.24 0 .007.061.047.135.089.163.091.388.297.491.449.099.145.19.346.234.513.049.187.046.573-.006.75l-.038.128h.08c.043 0 .144-.017.224-.038z"/>
</svg>
