<svg xmlns="http://www.w3.org/2000/svg" viewBox="0 0 3.704 5.821">
  <path d="M.038 4.623C.045 3.458.046 3.42.095 3.277c.126-.37.387-.674.726-.843l.204-.102-.13-.139a1.23 1.23 0 0 1-.34-.88C.556.942.669.666.93.4a1.277 1.277 0 0 1 1.84 0c.26.265.373.541.373.912 0 .349-.111.638-.338.88l-.13.14.203.1c.339.17.6.474.726.844.049.144.05.18.057 1.346L3.67 5.82H.03zm1.487.544c-.296-.299-.31-.317-.3-.392.006-.043.026-.308.045-.59.02-.28.041-.57.048-.64.013-.122.01-.131-.033-.131-.046 0-.048-.013-.054-.38l-.006-.381-.057.007c-.118.016-.348.151-.479.282-.147.147-.257.35-.293.54-.013.067-.023.533-.023 1.059v.94h1.463zm1.8-.628c0-.598-.009-.985-.024-1.062a1.13 1.13 0 0 0-.295-.539c-.127-.127-.358-.262-.475-.278l-.057-.007-.006.38c-.006.368-.008.38-.054.38-.043 0-.046.01-.033.131.007.072.029.36.048.642.019.28.039.546.045.589.01.075-.004.093-.3.392l-.311.313h1.463zm-1.33.307l.133-.134-.038-.53c-.02-.291-.043-.584-.05-.65l-.014-.118h-.353l-.014.119c-.007.065-.03.358-.05.65l-.038.53.133.133c.073.074.138.135.145.135.008 0 .073-.06.146-.135zm.15-2v-.227h-.591v.454h.591zm.05-.636c.812-.305.812-1.48 0-1.797a1.118 1.118 0 0 0-.694 0c-.16.064-.337.204-.44.348a.985.985 0 0 0-.003 1.1.975.975 0 0 0 1.138.35z"/>
</svg>
