<?xml version="1.0" encoding="utf-8"?>
<!-- Generator: Adobe Illustrator 20.1.0, SVG Export Plug-In . SVG Version: 6.00 Build 0)  -->
<svg version="1.1" id="Слой_1" xmlns="http://www.w3.org/2000/svg" xmlns:xlink="http://www.w3.org/1999/xlink" x="0px" y="0px"
	 viewBox="0 0 20 20" style="enable-background:new 0 0 20 20;" xml:space="preserve">
<style type="text/css">
</style>
<path class="st0" d="M3.5,2.9c0,0.3-0.3,0.6-0.6,0.6c-0.3,0-0.6-0.3-0.6-0.6c0-0.3,0.3-0.6,0.6-0.6C3.3,2.3,3.5,2.6,3.5,2.9z"/>
<path class="st0" d="M5.9,2.9c0,0.3-0.3,0.6-0.6,0.6c-0.3,0-0.6-0.3-0.6-0.6c0-0.3,0.3-0.6,0.6-0.6C5.6,2.3,5.9,2.6,5.9,2.9z"/>
<path class="st0" d="M8.2,2.9c0,0.3-0.3,0.6-0.6,0.6C7.3,3.5,7,3.3,7,2.9c0-0.3,0.3-0.6,0.6-0.6C7.9,2.3,8.2,2.6,8.2,2.9z"/>
<path class="st0" d="M19.9,18.3l-1.2-2.1c-0.2-0.3-0.6-0.4-0.9-0.1l-0.4,0.4L14.9,14l1.1-1.1c0.9,0.1,1.8-0.2,2.5-0.8
	c1.1-1.1,1.1-3,0-4.1c-0.9-0.9-2.2-1.1-3.2-0.6c0-0.7,0-6.1,0-6.7C15.2,0.3,15,0,14.6,0H0.6C0.3,0,0,0.3,0,0.6v14.1
	c0,0.3,0.3,0.6,0.6,0.6h6.6c-0.2,0.4-0.3,0.9-0.3,1.4c0,1.6,1.3,2.9,2.9,2.9c1.8,0,3.1-1.6,2.9-3.3l1.4-1.4l2.5,2.5l-0.4,0.4
	c-0.3,0.3-0.2,0.7,0.1,0.9l2.1,1.2c0.2,0.1,0.5,0.1,0.7-0.1l0.8-0.8C20,18.8,20.1,18.5,19.9,18.3z M13.5,10.4l-0.4,0.4
	c-0.1-0.2-0.2-0.3-0.3-0.5l-2.5-2.5c-0.2-0.2-0.6-0.2-0.8,0L7.9,9.4H1.2V5.9h12.9v2.4C13.6,8.9,13.4,9.6,13.5,10.4z M11.1,12
	L9.1,9.9l0.8-0.8l2.1,2.1c0.2,0.2,0.2,0.6,0,0.8C11.7,12.2,11.4,12.2,11.1,12z M1.2,1.2h12.9v3.5H1.2V1.2z M1.2,10.5h6.9l2.2,2.2
	c0.1,0.1,0.3,0.3,0.5,0.3l-0.6,0.6c-0.6-0.1-1.3,0-1.8,0.3c0,0,0,0,0,0H1.2V10.5z M11.6,15.6c-0.1,0.1-0.2,0.4-0.2,0.6
	c0.2,0.6,0,1.2-0.4,1.7c-0.3,0.3-0.8,0.5-1.2,0.5c-0.3,0-0.5-0.1-0.8-0.2l1.2-1.2c0.2-0.2,0.2-0.6,0-0.8C10,16,9.6,16,9.4,16.2
	l-1.2,1.2C8.1,17.1,8,16.9,8,16.6c0-0.5,0.2-0.9,0.5-1.2c0.4-0.4,1.1-0.6,1.7-0.4c0.2,0.1,0.4,0,0.6-0.2l3.8-3.8
	c0.1-0.1,0.2-0.4,0.2-0.6c-0.2-0.6,0-1.2,0.4-1.7c0.5-0.5,1.3-0.7,2-0.3L16,9.6c-0.2,0.2-0.2,0.6,0,0.8c0.2,0.2,0.6,0.2,0.8,0
	L18,9.2c0.3,0.7,0.2,1.5-0.3,2c-0.4,0.4-1.1,0.6-1.7,0.4c-0.2-0.1-0.4,0-0.6,0.2L11.6,15.6z M18.5,18.7l-1-0.6l0.6-0.6l0.6,1
	L18.5,18.7z"/>
<path class="st0" d="M3.5,7.6c0,0.3-0.3,0.6-0.6,0.6c-0.3,0-0.6-0.3-0.6-0.6C2.3,7.3,2.6,7,2.9,7C3.3,7,3.5,7.3,3.5,7.6z"/>
<path class="st0" d="M5.9,7.6c0,0.3-0.3,0.6-0.6,0.6c-0.3,0-0.6-0.3-0.6-0.6C4.7,7.3,4.9,7,5.3,7C5.6,7,5.9,7.3,5.9,7.6z"/>
<path class="st0" d="M8.2,7.6c0,0.3-0.3,0.6-0.6,0.6C7.3,8.2,7,7.9,7,7.6C7,7.3,7.3,7,7.6,7C7.9,7,8.2,7.3,8.2,7.6z"/>
<path class="st0" d="M3.5,12.3c0,0.3-0.3,0.6-0.6,0.6c-0.3,0-0.6-0.3-0.6-0.6c0-0.3,0.3-0.6,0.6-0.6C3.3,11.7,3.5,12,3.5,12.3z"/>
<path class="st0" d="M5.9,12.3c0,0.3-0.3,0.6-0.6,0.6c-0.3,0-0.6-0.3-0.6-0.6c0-0.3,0.3-0.6,0.6-0.6C5.6,11.7,5.9,12,5.9,12.3z"/>
<path class="st0" d="M8.2,12.3c0,0.3-0.3,0.6-0.6,0.6c-0.3,0-0.6-0.3-0.6-0.6c0-0.3,0.3-0.6,0.6-0.6C7.9,11.7,8.2,12,8.2,12.3z"/>
</svg>
