<svg xmlns="http://www.w3.org/2000/svg" viewBox="0 0 7.408 5.821">
  <path d="M2.028 5.805C1.98 5.787.07 3.883.038 3.823a.309.309 0 0 1 0-.226c.035-.065 1.946-1.965 1.995-1.983a.265.265 0 0 1 .312.114c.039.066.039.066.039.494v.428H3.85c1.552.001 1.536 0 1.616.072.072.064.09.137.09.384v.232l.607-.607.607-.607-.607-.607-.607-.608v.225c0 .123-.007.249-.016.279a.308.308 0 0 1-.16.168c-.028.012-.407.017-1.15.017-1.218 0-1.167.003-1.25-.095a.26.26 0 0 1 .003-.34c.079-.093.053-.091 1.095-.091h.952V.645c0-.476.004-.499.104-.575a.285.285 0 0 1 .268-.027c.071.035 1.927 1.887 1.965 1.96a.3.3 0 0 1 .014.225c-.016.043-1.897 1.94-1.956 1.973a.269.269 0 0 1-.304-.03c-.087-.074-.091-.1-.091-.569v-.426H3.543c-1.667 0-1.556.008-1.636-.113-.04-.06-.042-.072-.046-.31l-.005-.247-.603.602-.602.602.6.6.599.6.008-.245c.007-.234.01-.249.049-.308.079-.119.012-.113 1.273-.113 1.222 0 1.163-.005 1.249.088a.26.26 0 0 1-.12.42c-.04.012-.364.018-.993.018h-.932v.428c0 .428 0 .428-.039.494a.27.27 0 0 1-.317.113z"/>
</svg>
