<?xml version="1.0" encoding="utf-8"?>
<!-- Generator: Adobe Illustrator 20.1.0, SVG Export Plug-In . SVG Version: 6.00 Build 0)  -->
<svg version="1.1" id="Capa_1" xmlns="http://www.w3.org/2000/svg" xmlns:xlink="http://www.w3.org/1999/xlink" x="0px" y="0px"
	 viewBox="0 0 20 22.6" style="enable-background:new 0 0 20 22.6;" xml:space="preserve">
 <g>
	<path class="st0" d="M20,6.7V0H0v6.7h1.3V8H0v6.7h1.3V16H0v6.7h20V16h-1.3v-1.3H20V8h-1.3V6.7H20z M1.3,1.3h17.3v4H1.3V1.3z
		 M18.7,21.3H1.3v-4h17.3L18.7,21.3L18.7,21.3z M17.3,16H2.7v-1.3h14.7V16z M18.7,13.3H1.3v-4h17.3L18.7,13.3L18.7,13.3z M17.3,8
		H2.7V6.7h14.7V8z"/>
	<rect x="16" y="2.7" class="st0" width="1.3" height="1.3"/>
	<rect x="13.3" y="2.7" class="st0" width="1.3" height="1.3"/>
	<rect x="16" y="10.7" class="st0" width="1.3" height="1.3"/>
	<rect x="13.3" y="10.7" class="st0" width="1.3" height="1.3"/>
	<rect x="16" y="18.6" class="st0" width="1.3" height="1.3"/>
	<rect x="13.3" y="18.6" class="st0" width="1.3" height="1.3"/>
	<rect x="5.3" y="2.7" class="st0" width="1.3" height="1.3"/>
	<rect x="2.7" y="2.7" class="st0" width="1.3" height="1.3"/>
	<rect x="5.3" y="10.7" class="st0" width="1.3" height="1.3"/>
	<rect x="2.7" y="10.7" class="st0" width="1.3" height="1.3"/>
	<rect x="5.3" y="18.6" class="st0" width="1.3" height="1.3"/>
	<rect x="2.7" y="18.6" class="st0" width="1.3" height="1.3"/>
</g>
</svg>
