<svg xmlns="http://www.w3.org/2000/svg" viewBox="0 0 20 22.97">
  <defs>
    <style>
      
    </style>
  </defs>
  <path id="straxovanie.svg" class="cls-1" d="M45.975,1023.92c-0.012-.62-0.024-1.21-0.024-1.77a0.82,0.82,0,0,0-.833-0.81,11.73,11.73,0,0,1-8.538-3.11,0.842,0.842,0,0,0-1.162,0,11.727,11.727,0,0,1-8.537,3.11,0.82,0.82,0,0,0-.833.81c0,0.56-.012,1.15-0.024,1.77-0.114,5.78-.271,13.7,9.7,17.04a0.951,0.951,0,0,0,.546,0C46.245,1037.62,46.089,1029.7,45.975,1023.92ZM36,1039.34c-8.552-3-8.423-9.58-8.308-15.39,0.007-.35.014-0.68,0.018-1.01A13.149,13.149,0,0,0,36,1019.9a13.152,13.152,0,0,0,8.291,3.04c0,0.33.011,0.66,0.018,1.01C44.424,1029.76,44.553,1036.34,36,1039.34Zm2.869-12.64-4.021,3.89-1.716-1.66a0.863,0.863,0,0,0-1.178,0,0.788,0.788,0,0,0,0,1.14l2.305,2.23a0.869,0.869,0,0,0,1.178,0l4.61-4.46a0.788,0.788,0,0,0,0-1.14A0.863,0.863,0,0,0,38.869,1026.7Z" transform="translate(-26 -1018.03)"/>
</svg>
