<svg xmlns="http://www.w3.org/2000/svg"  viewBox="0 0 20 24">
  <defs>
    <style>
    </style>
  </defs>
  <path id="administr.svg" class="cls-1" d="M46.138,1157.56H41.485v-1.68a0.876,0.876,0,0,0-.862-0.88H33.378a0.877,0.877,0,0,0-.863.88v4.64a0.877,0.877,0,0,0,.863.88H38.73a0.88,0.88,0,0,0,0-1.76H34.24v-2.88h5.515v1.68a0.87,0.87,0,0,0,.862.88H45.27v17.93H28.725v-17.93h1.327a0.88,0.88,0,0,0,0-1.76h-2.19a0.87,0.87,0,0,0-.863.88v19.68a0.877,0.877,0,0,0,.863.88H46.138a0.877,0.877,0,0,0,.863-0.88v-19.68A0.87,0.87,0,0,0,46.138,1157.56Zm-4.284,9.17h-6.78a0.875,0.875,0,0,0,0,1.75h6.78A0.875,0.875,0,0,0,41.854,1166.73Zm0-3.33h-6.78a0.88,0.88,0,0,0,0,1.76h6.78A0.88,0.88,0,0,0,41.854,1163.4Zm0,6.66h-6.78a0.875,0.875,0,0,0,0,1.75h6.78A0.875,0.875,0,0,0,41.854,1170.06Zm-9.617-6.78a1.005,1.005,0,1,1-.987,1A1,1,0,0,1,32.237,1163.28Zm0,3.32a1.005,1.005,0,1,1-.987,1.01A1,1,0,0,1,32.237,1166.6Zm0,3.33a1.005,1.005,0,1,1-.987,1A1,1,0,0,1,32.237,1169.93Zm9.617,3.45h-6.78a0.88,0.88,0,0,0,0,1.76h6.78A0.88,0.88,0,0,0,41.854,1173.38Zm-9.617-.13a1.01,1.01,0,1,1-.987,1.01A1,1,0,0,1,32.237,1173.25Z" transform="translate(-27 -1155)"/>
</svg>
