<svg xmlns="http://www.w3.org/2000/svg" width="20" height="20" viewBox="0 0 20 20">
  <defs>
    <style>
      .cls-1 {
        fill: #3c8e65;
        fill-rule: evenodd;
      }
    </style>
  </defs>
  <path id="done.svg" class="cls-1" d="M596,357a10,10,0,1,0,10,10A10.009,10.009,0,0,0,596,357Zm0,18.384A8.387,8.387,0,1,1,604.386,367,8.4,8.4,0,0,1,596,375.386Zm3.187-11.574-4.667,4.667-1.708-1.708a0.805,0.805,0,0,0-1.139,1.139l2.278,2.277a0.8,0.8,0,0,0,1.139,0l5.236-5.236A0.805,0.805,0,0,0,599.187,363.812Z" transform="translate(-586 -357)"/>
</svg>
