<svg xmlns="http://www.w3.org/2000/svg" viewBox="0 0 20 20">
  <path fill-rule="evenodd" d="M19.29 18.579H.71a.7.7 0 0 0-.69.711.715.715 0 0 0 .69.71H19.3a.71.71 0 0 0 .7-.71.719.719 0 0 0-.71-.711zM.02 12.289L0 15.668a.765.765 0 0 0 .2.52.694.694 0 0 0 .5.208l3.29-.018a.652.652 0 0 0 .49-.208L15.86 4.56a.746.746 0 0 0 0-1.022L12.6.176a.706.706 0 0 0-1 0l-2.28 2.34-9.1 9.27a.772.772 0 0 0-.2.503zM12.11 1.701l2.29 2.34-1.29 1.316-2.3-2.339zm-10.68 10.9l8.38-8.56 2.3 2.339-8.39 8.543-2.31.017z" data-name="Forma 1 копия 4"/>
</svg>
