<svg width="111" height="70" viewBox="0 0 111 70" fill="none" xmlns="http://www.w3.org/2000/svg">
	<path d="M101.536 70.0001H0L9.29688 39.4966H110.894L101.536 70.0001Z" fill="#00ABC8"></path>
	<path d="M43.5674 28.0121V8.93225H51.9528V15.2517H55.7809V8.93225H64.1663V28.0121H55.7809V21.6927H51.9528V28.0121H43.5674Z" fill="#ffffff"></path>
	<path d="M85.0084 17.4392L88.2288 8.93225H80.0257L77.4736 15.2517H76.0153V8.93225H67.6299V28.0121H76.0153V21.6927H78.0205L80.5726 28.0121H88.8972L85.0084 17.4392Z" fill="#ffffff"></path>
	<path d="M103.238 11.059C100.686 11.059 98.9848 12.0312 97.7695 13.3073C97.8303 11.6667 98.9848 9.96528 100.625 9.29688C103.421 8.0816 106.702 8.93229 109.011 6.92708V0C109.011 0 107.066 0.789931 103.421 1.21528C101.233 1.45833 98.1341 2.1875 95.3997 3.88889C91.997 6.01562 89.5664 9.53993 89.5664 16.7101C89.5664 26.0069 94.9744 28.6198 100.504 28.6198C105.973 28.6198 110.834 25.8247 110.834 19.7483C110.895 13.9149 107.37 11.059 103.238 11.059ZM100.261 22.2396C98.2556 22.2396 97.7695 20.6597 97.7695 19.4444C97.7695 18.2292 98.2556 16.6493 100.261 16.6493C102.266 16.6493 102.691 18.1684 102.691 19.4444C102.691 20.6597 102.205 22.2396 100.261 22.2396Z" fill="#ffffff"></path>
	<path d="M41.1373 18.4723C41.1373 13.7935 39.0105 9.35769 34.2102 8.44623C34.0886 8.44623 33.9671 8.38547 33.9064 8.38547C33.6025 8.32471 33.3595 8.32471 33.0557 8.32471C32.8734 8.32471 32.6303 8.32471 32.448 8.32471C32.2657 8.32471 32.0834 8.32471 31.9012 8.32471C30.3821 8.44623 29.0452 8.87158 28.0123 9.60075C27.2831 10.0869 26.6755 10.6337 26.2501 11.2414L25.5209 8.93235H18.8369V35.6077H27.2223V26.8577C27.83 27.4046 28.5591 27.8299 29.4706 28.1337C30.3213 28.4983 31.2327 28.6198 32.448 28.6198C38.4637 28.6806 41.1373 23.7587 41.1373 18.4723ZM29.6529 21.9358C28.4984 21.9358 27.5262 21.2674 27.1616 20.599V16.4063C27.5869 15.7379 28.4984 15.0695 29.6529 15.0695C31.6581 15.0695 32.5696 16.8317 32.5696 18.533C32.5696 18.7761 32.5696 18.9584 32.5088 19.2014C32.3265 20.599 31.415 21.9358 29.6529 21.9358Z" fill="#ffffff"></path>
</svg>