<svg xmlns="http://www.w3.org/2000/svg" viewBox="0 0 20 23">
  <defs>
    <style>
      .cls-1 {
 
      }
    </style>
  </defs>
  <path id="zayavki.svg" class="cls-1" d="M46.134,927.452H41.486v-1.606A0.859,0.859,0,0,0,40.62,925H33.384a0.859,0.859,0,0,0-.866.846v4.448a0.859,0.859,0,0,0,.866.846h5.35a0.846,0.846,0,1,0,0-1.691H34.25v-2.758h5.509V928.3a0.858,0.858,0,0,0,.866.845h4.648v17.166H28.732V929.143h1.323a0.846,0.846,0,1,0,0-1.691H27.866A0.859,0.859,0,0,0,27,928.3v18.856a0.859,0.859,0,0,0,.866.846H46.134A0.859,0.859,0,0,0,47,947.154V928.3A0.859,0.859,0,0,0,46.134,927.452Zm-5.143,7.742a0.881,0.881,0,0,0-1.227,0L35.727,939.1l-1.477-1.452a0.882,0.882,0,0,0-1.227,0,0.831,0.831,0,0,0,0,1.2l2.088,2.053a0.887,0.887,0,0,0,1.227,0l4.652-4.5A0.832,0.832,0,0,0,40.991,935.194Z" transform="translate(-27 -925)"/>
</svg>
