<?xml version="1.0" encoding="utf-8"?>
<!-- Generator: Adobe Illustrator 20.1.0, SVG Export Plug-In . SVG Version: 6.00 Build 0)  -->
<svg version="1.1" id="Слой_1" xmlns="http://www.w3.org/2000/svg" xmlns:xlink="http://www.w3.org/1999/xlink" x="0px" y="0px"
	 viewBox="0 0 20 20" style="enable-background:new 0 0 20 20;" xml:space="preserve">
<style type="text/css">
	
</style>
<path class="st0" d="M19.2,0H0.8C0.3,0,0,0.3,0,0.8v18.4C0,19.7,0.3,20,0.8,20h18.4c0.4,0,0.8-0.3,0.8-0.8V0.8C20,0.3,19.7,0,19.2,0
	z M18.4,18.4H1.6V1.6h16.9V18.4z M3.2,5.4c-0.3-0.3-0.3-0.8,0-1.1c0.3-0.3,0.8-0.3,1.1,0l0.5,0.5l1.7-1.7c0.3-0.3,0.8-0.3,1.1,0
	c0.3,0.3,0.3,0.8,0,1.1L5.4,6.4c-0.3,0.3-0.8,0.3-1.1,0L3.2,5.4z M9.2,4.8C9.2,4.3,9.6,4,10,4h6.2C16.7,4,17,4.3,17,4.8
	c0,0.4-0.3,0.8-0.8,0.8H10C9.6,5.5,9.2,5.2,9.2,4.8z M3.2,15.9c-0.3-0.3-0.3-0.8,0-1.1c0.3-0.3,0.8-0.3,1.1,0l0.5,0.5l1.7-1.7
	c0.3-0.3,0.8-0.3,1.1,0c0.3,0.3,0.3,0.8,0,1.1l-2.2,2.2c-0.3,0.3-0.8,0.3-1.1,0L3.2,15.9z M9.2,15.2c0-0.4,0.3-0.8,0.8-0.8h6.2
	c0.4,0,0.8,0.3,0.8,0.8c0,0.4-0.3,0.8-0.8,0.8H10C9.6,16,9.2,15.7,9.2,15.2z M3.2,10.6c-0.3-0.3-0.3-0.8,0-1.1
	c0.3-0.3,0.8-0.3,1.1,0L4.8,10l1.7-1.7C6.8,8,7.3,8,7.6,8.3c0.3,0.3,0.3,0.8,0,1.1l-2.2,2.2c-0.3,0.3-0.8,0.3-1.1,0L3.2,10.6z
	 M9.2,10c0-0.4,0.3-0.8,0.8-0.8h6.2c0.4,0,0.8,0.3,0.8,0.8s-0.3,0.8-0.8,0.8H10C9.6,10.8,9.2,10.4,9.2,10z"/>
</svg>
