<svg xmlns="http://www.w3.org/2000/svg" viewBox="0 0 23 23">
  <defs>
  </defs>
  <path id="dogovor.svg" class="cls-1" d="M49.407,980.238a2.024,2.024,0,0,0-2.859,0l-2.027,2.029v-5.34a2.007,2.007,0,0,0-.592-1.429l-1.906-1.906a2.008,2.008,0,0,0-1.43-.592H29.022A2.024,2.024,0,0,0,27,975.021v18.958A2.024,2.024,0,0,0,29.022,996H42.5a2.024,2.024,0,0,0,2.022-2.021v-5.992l4.886-4.89A2.021,2.021,0,0,0,49.407,980.238Zm-8.93-5.89a0.736,0.736,0,0,1,.592.2l1.906,1.906a0.735,0.735,0,0,1,.2.592h-2.7v-2.7Zm2.7,19.631a0.674,0.674,0,0,1-.674.673H29.022a0.674,0.674,0,0,1-.674-0.673V975.021a0.674,0.674,0,0,1,.674-0.673H39.129v3.369a0.674,0.674,0,0,0,.674.674h3.369v5.225l-1.988,1.99-0.953.952a0.672,0.672,0,0,0-.163.264l-0.953,2.859a0.674,0.674,0,0,0,.852.852l2.859-.953a0.672,0.672,0,0,0,.263-0.163l0.082-.082v4.644h0Zm-1.511-6.944,0.953,0.953-0.364.364-1.429.476L41.3,987.4Zm1.906,0-0.953-.953,3.239-3.242,0.953,0.953Zm4.886-4.891-0.695.7-0.953-.953,0.695-.695A0.674,0.674,0,1,1,48.453,982.144Zm-8.65-2.406H30.369a0.674,0.674,0,0,0,0,1.348H39.8A0.674,0.674,0,0,0,39.8,979.738Zm-2.7,2.7H30.369a0.674,0.674,0,1,0,0,1.347h6.739A0.674,0.674,0,1,0,37.108,982.434Zm0,2.7H30.369a0.674,0.674,0,0,0,0,1.348h6.739A0.674,0.674,0,0,0,37.108,985.129Zm0,2.695H30.369a0.674,0.674,0,0,0,0,1.348h6.739A0.674,0.674,0,0,0,37.108,987.824Zm2.7,4.133H35.76a0.674,0.674,0,0,0,0,1.348H39.8A0.674,0.674,0,0,0,39.8,991.957Z" transform="translate(-27 -973)"/>
</svg>
