<svg xmlns="http://www.w3.org/2000/svg" viewBox="0 0 5.821 5.821">
  <path d="M.099 5.763C.04 5.705.04 5.705.05 5.386c.007-.255.02-.347.059-.455.066-.183.193-.362.334-.47l.116-.09-.09-.103a.89.89 0 0 1 .26-1.405c.13-.068.15-.072.386-.072.28 0 .387.034.568.183.391.32.429.958.077 1.301l-.09.087.107.085c.142.112.235.233.323.42.07.15.073.164.081.505l.008.352-.061.048c-.061.048-.073.049-1.017.049H.156zm1.749-.448a.7.7 0 0 0-.213-.543.661.661 0 0 0-.555-.208.664.664 0 0 0-.469.199c-.145.14-.21.291-.222.523l-.012.197h1.471zm-.474-1.16c.396-.203.387-.803-.015-.992a.556.556 0 0 0-.788.556c.04.384.458.611.803.435zm.947.015c-.114-.058-.112-.028-.112-1.75 0-1.649.007-1.823.088-1.98.063-.122.2-.25.34-.316L2.76.065h2.526l.133.068a.75.75 0 0 1 .36.425c.03.104.034.289.029 1.335L5.8 3.106l-.059.124a.785.785 0 0 1-.315.34c-.147.075-.345.088-1.321.088h-.952l-.343.257a4.075 4.075 0 0 1-.389.27.166.166 0 0 1-.1-.015zm.503-.685l.221-.165h1.029c.67 0 1.06-.009 1.12-.024a.441.441 0 0 0 .154-.085c.128-.118.127-.103.126-1.37V.673l-.05-.09a.432.432 0 0 0-.141-.14l-.09-.051H4.027c-.941-.001-1.18.005-1.24.03a.426.426 0 0 0-.215.237c-.039.116-.036 3.03.002 3.006.016-.009.128-.09.25-.181zm.173-.795c-.058-.058-.06-.183-.004-.233.036-.033.11-.038.57-.038.503 0 .533.002.572.046a.193.193 0 0 1 .04.112.193.193 0 0 1-.04.112c-.04.043-.069.046-.567.046-.496 0-.529-.003-.571-.046zm0-.721c-.06-.06-.06-.183.002-.239.045-.04.1-.043.985-.05.644-.003.956.002.997.02.057.023.11.103.11.165a.216.216 0 0 1-.046.09l-.047.059H4.02c-.948 0-.98-.001-1.023-.045zm0-.721A.17.17 0 0 1 3.012 1c.06-.047.074-.047 1.024-.041 1.06.007 1.018.001 1.046.146.012.058.004.082-.043.13l-.058.057h-.97c-.94 0-.97-.001-1.014-.045z"/>
</svg>
