<svg xmlns="http://www.w3.org/2000/svg" viewBox="0 0 5.027 5.821">
  <path d="M.868 5.799a1.125 1.125 0 0 1-.521-.287c-.2-.228-.26-.442-.24-.877.028-.65.188-1.151.466-1.464.176-.197.484-.335.748-.335.133 0 .11-.011.517.24.182.112.372.17.606.183.326.02.524-.041.891-.274.192-.121.23-.137.355-.145.283-.019.634.147.817.386.27.35.41.866.416 1.514.002.32-.03.465-.135.63a.934.934 0 0 1-.595.418c-.122.03-.384.034-1.684.033C1.663 5.82.924 5.81.869 5.799zm3.378-.38a.659.659 0 0 0 .314-.36c.062-.213.02-.785-.086-1.16-.09-.321-.32-.611-.542-.687-.18-.062-.242-.05-.458.087-.658.417-1.275.411-1.944-.018-.19-.122-.255-.13-.45-.057-.16.06-.308.203-.41.395-.213.403-.303 1.255-.162 1.535a.578.578 0 0 0 .342.287c.113.04.215.042 1.704.037l1.585-.005zM2.14 2.78c-.465-.112-.89-.533-1.01-1a1.922 1.922 0 0 1-.011-.669c.014-.066.058-.191.1-.278A1.393 1.393 0 0 1 3.108.18c.236.116.501.383.615.619.11.228.142.376.142.645-.001.402-.136.705-.443.994a1.273 1.273 0 0 1-.96.373c-.111-.001-.257-.015-.322-.03zm.791-.403c.201-.099.409-.304.502-.495.29-.6-.077-1.351-.728-1.488a1.059 1.059 0 0 0-1.232.71 1.354 1.354 0 0 0-.007.636c.043.143.181.36.293.457.246.216.424.28.762.27.225-.005.25-.01.41-.09z"/>
</svg>
