<svg xmlns="http://www.w3.org/2000/svg" viewBox="0 0 4.233 5.821">
  <path d="M1.957 5.806a.668.668 0 0 1-.5-.538l-.008-.062L.838 5.2c-.34-.003-.622-.01-.634-.017a.336.336 0 0 1-.193-.23c-.028-.109-.014-.15.158-.473l.153-.285.004-.774c.005-.86.004-.85.087-1.097.113-.338.335-.645.622-.86.13-.099.354-.218.485-.26l.082-.027V.848c0-.18.005-.362.012-.402a.497.497 0 0 1 .559-.411c.213.036.379.202.413.41.006.041.012.222.012.403v.329l.082.026c.13.042.354.162.484.26.35.262.586.636.682 1.075.022.104.024.15.028.883l.004.774.155.29.155.29v.102c0 .116-.018.165-.085.232-.088.088-.057.084-.741.09l-.611.007-.008.062a.66.66 0 0 1-.352.483.65.65 0 0 1-.434.055zm.307-.282c.11-.05.203-.17.218-.279l.006-.045h-.776l.006.045c.018.136.144.27.288.306a.468.468 0 0 0 .258-.027zm1.653-.598c.01-.01.02-.03.019-.045 0-.014-.06-.14-.134-.278l-.135-.252H.532l-.08.15c-.194.367-.196.372-.187.397.005.014.021.03.036.039.022.01.41.013 1.812.01 1.647-.002 1.787-.003 1.804-.02zm-.304-1.551c-.004-.622-.007-.727-.023-.795a1.56 1.56 0 0 0-.502-.845 1.514 1.514 0 0 0-.697-.34 1.66 1.66 0 0 0-.582 0c-.611.13-1.05.562-1.2 1.185-.016.068-.019.173-.023.795l-.004.716h3.036zM.994 2.994C.937 2.958.93 2.934.937 2.8c.023-.41.277-.784.659-.97.184-.089.478-.143.558-.102.05.026.07.061.07.119 0 .04-.006.056-.038.088-.032.031-.047.038-.088.038a.908.908 0 0 0-.903.843c-.01.114-.013.125-.043.156a.126.126 0 0 1-.158.02zm1.22-1.883c.086.007.116.006.12-.004.003-.007.003-.156.001-.329-.003-.312-.004-.316-.032-.366a.31.31 0 0 0-.077-.084C2.183.298 2.168.293 2.1.293s-.084.004-.127.035a.31.31 0 0 0-.077.084c-.028.05-.028.054-.032.366-.002.173-.001.321.002.329.004.01.033.01.12.004.063-.005.165-.005.228 0z"/>
</svg>
