<svg xmlns="http://www.w3.org/2000/svg" width="27.125" height="33.094" viewBox="0 0 27.125 33.094">
  <metadata><?xpacket begin="﻿" id="W5M0MpCehiHzreSzNTczkc9d"?>
<x:xmpmeta xmlns:x="adobe:ns:meta/" x:xmptk="Adobe XMP Core 5.6-c142 79.160924, 2017/07/13-01:06:39        ">
   <rdf:RDF xmlns:rdf="http://www.w3.org/1999/02/22-rdf-syntax-ns#">
      <rdf:Description rdf:about=""/>
   </rdf:RDF>
</x:xmpmeta>
                                                                                                    
                                                                                                    
                                                                                                    
                                                                                                    
                                                                                                    
                                                                                                    
                                                                                                    
                                                                                                    
                                                                                                    
                                                                                                    
                                                                                                    
                                                                                                    
                                                                                                    
                                                                                                    
                                                                                                    
                                                                                                    
                                                                                                    
                                                                                                    
                                                                                                    
                                                                                                    
                           
<?xpacket end="w"?></metadata>
<defs>
    <style>
      .cls-1 {
        fill: #fff;
        fill-rule: evenodd;
      }
    </style>
  </defs>
  <path id="Forma_1" data-name="Forma 1" class="cls-1" d="M74.528,246.211a0.649,0.649,0,1,0,.59.646A0.62,0.62,0,0,0,74.528,246.211Zm11.791-26.62H85.14v-0.647a1.776,1.776,0,1,0-3.537,0v0.647H79.244v-0.647a1.776,1.776,0,1,0-3.537,0v0.647H73.349v-0.647a1.776,1.776,0,1,0-3.537,0v0.647H67.454v-0.647a1.776,1.776,0,1,0-3.537,0v0.647H62.737a1.861,1.861,0,0,0-1.769,1.938v25.328a3.1,3.1,0,0,0,2.948,3.231H85.14a3.1,3.1,0,0,0,2.948-3.231V221.529A1.861,1.861,0,0,0,86.319,219.591Zm-3.537-.647a0.592,0.592,0,1,1,1.179,0v0.647H82.781v-0.647Zm-5.9,0a0.592,0.592,0,1,1,1.179,0v0.647H76.886v-0.647Zm-5.9,0a0.592,0.592,0,1,1,1.179,0v0.647H70.991v-0.647Zm-5.9,0a0.592,0.592,0,1,1,1.179,0v0.647H65.1v-0.647Zm21.812,25.329a1.862,1.862,0,0,1-1.769,1.938H76.886a0.649,0.649,0,0,0,0,1.292H85.14a2.766,2.766,0,0,0,1.769-.648v0A1.862,1.862,0,0,1,85.14,248.8H63.917a1.862,1.862,0,0,1-1.769-1.939v0a2.766,2.766,0,0,0,1.769.648H72.17a0.649,0.649,0,0,0,0-1.292H63.917a1.862,1.862,0,0,1-1.769-1.938V227.344h24.76v16.929Zm0-18.221H62.148v-4.523a0.621,0.621,0,0,1,.59-0.646h1.179v0.646a1.861,1.861,0,0,0,1.769,1.938,0.649,0.649,0,0,0,0-1.292,0.621,0.621,0,0,1-.59-0.646v-0.646h4.716v0.646a1.861,1.861,0,0,0,1.768,1.938,0.649,0.649,0,0,0,0-1.292,0.621,0.621,0,0,1-.59-0.646v-0.646h4.716v0.646a1.861,1.861,0,0,0,1.769,1.938,0.649,0.649,0,0,0,0-1.292,0.621,0.621,0,0,1-.59-0.646v-0.646H81.6v0.646a1.861,1.861,0,0,0,1.769,1.938,0.649,0.649,0,0,0,0-1.292,0.621,0.621,0,0,1-.59-0.646v-0.646h3.537a0.62,0.62,0,0,1,.589.646v4.523Zm-18.275,4.264H65.1a0.62,0.62,0,0,0-.59.646v3.877a0.62,0.62,0,0,0,.59.646h3.537a0.62,0.62,0,0,0,.59-0.646v-3.877A0.62,0.62,0,0,0,68.633,230.316Zm-0.59,3.877H65.685v-2.584h2.358v2.584Zm8.253-3.877H72.759a0.62,0.62,0,0,0-.59.646v3.877a0.62,0.62,0,0,0,.59.646H76.3a0.62,0.62,0,0,0,.59-0.646v-3.877A0.62,0.62,0,0,0,76.3,230.316Zm-0.59,3.877H73.349v-2.584h2.358v2.584Zm8.253-3.877H80.423a0.62,0.62,0,0,0-.59.646v3.877a0.62,0.62,0,0,0,.59.646H83.96a0.62,0.62,0,0,0,.589-0.646v-3.877A0.62,0.62,0,0,0,83.96,230.316Zm-0.59,3.877H81.013v-2.584h2.358v2.584ZM68.633,238.07H65.1a0.62,0.62,0,0,0-.59.646v3.877a0.62,0.62,0,0,0,.59.646h3.537a0.62,0.62,0,0,0,.59-0.646v-3.877A0.62,0.62,0,0,0,68.633,238.07Zm-0.59,3.877H65.685v-2.585h2.358v2.585ZM76.3,238.07H72.759a0.62,0.62,0,0,0-.59.646v3.877a0.62,0.62,0,0,0,.59.646H76.3a0.62,0.62,0,0,0,.59-0.646v-3.877A0.62,0.62,0,0,0,76.3,238.07Zm-0.59,3.877H73.349v-2.585h2.358v2.585Zm8.253-3.877H80.423a0.62,0.62,0,0,0-.59.646v3.877a0.62,0.62,0,0,0,.59.646H83.96a0.62,0.62,0,0,0,.589-0.646v-3.877A0.62,0.62,0,0,0,83.96,238.07Zm-0.59,3.877H81.013v-2.585h2.358v2.585Z" transform="translate(-60.969 -217)"/>
</svg>
