<svg xmlns="http://www.w3.org/2000/svg" width="19" height="24" viewBox="0 0 19 24">
  <defs>
    <style>
      .cls-1 {
        fill: #fff;
        fill-rule: evenodd;
      }
    </style>
  </defs>
  <path id="delete.svg" class="cls-1" d="M401.315,1052.88h-3.659a3.174,3.174,0,0,0-6.32,0h-3.659a2.716,2.716,0,0,0-2.685,2.74v0.14a2.75,2.75,0,0,0,1.7,2.55v12.95a2.716,2.716,0,0,0,2.685,2.74h10.244a2.717,2.717,0,0,0,2.685-2.74v-12.95a2.75,2.75,0,0,0,1.7-2.55v-0.14A2.717,2.717,0,0,0,401.315,1052.88Zm-6.819-1.58a1.923,1.923,0,0,1,1.873,1.58h-3.746A1.923,1.923,0,0,1,394.5,1051.3Zm6.533,19.96a1.43,1.43,0,0,1-1.411,1.44H389.374a1.431,1.431,0,0,1-1.412-1.44V1058.5h13.067v12.76Zm1.7-15.5a1.424,1.424,0,0,1-1.411,1.44H387.677a1.424,1.424,0,0,1-1.412-1.44v-0.14a1.431,1.431,0,0,1,1.412-1.44h13.638a1.43,1.43,0,0,1,1.411,1.44v0.14Zm-11.644,15.28a0.643,0.643,0,0,0,.637-0.65v-7.32a0.637,0.637,0,1,0-1.274,0v7.32A0.643,0.643,0,0,0,391.082,1071.04Zm3.414,0a0.643,0.643,0,0,0,.637-0.65v-7.32a0.637,0.637,0,1,0-1.274,0v7.32A0.643,0.643,0,0,0,394.5,1071.04Zm3.414,0a0.643,0.643,0,0,0,.637-0.65v-7.32a0.637,0.637,0,1,0-1.274,0v7.32A0.643,0.643,0,0,0,397.91,1071.04Z" transform="translate(-385 -1050)"/>
</svg>
