<svg xmlns="http://www.w3.org/2000/svg" width="23" height="19" viewBox="0 0 23 19">
  <metadata><?xpacket begin="﻿" id="W5M0MpCehiHzreSzNTczkc9d"?>
<x:xmpmeta xmlns:x="adobe:ns:meta/" x:xmptk="Adobe XMP Core 5.6-c142 79.160924, 2017/07/13-01:06:39        ">
   <rdf:RDF xmlns:rdf="http://www.w3.org/1999/02/22-rdf-syntax-ns#">
      <rdf:Description rdf:about=""/>
   </rdf:RDF>
</x:xmpmeta>
                                                                                                    
                                                                                                    
                                                                                                    
                                                                                                    
                                                                                                    
                                                                                                    
                                                                                                    
                                                                                                    
                                                                                                    
                                                                                                    
                                                                                                    
                                                                                                    
                                                                                                    
                                                                                                    
                                                                                                    
                                                                                                    
                                                                                                    
                                                                                                    
                                                                                                    
                                                                                                    
                           
<?xpacket end="w"?></metadata>
<defs>
    <style>
      .cls-1 {
        fill: #86d2a1;
        fill-rule: evenodd;
      }
    </style>
  </defs>
  <path class="cls-1" d="M1596.41,388.045a0.566,0.566,0,0,0-.58.55v2.1a2.276,2.276,0,0,1-2.34,2.2h-15.98a2.276,2.276,0,0,1-2.34-2.2v-2.1a0.586,0.586,0,0,0-1.17,0v2.1a3.418,3.418,0,0,0,3.51,3.3h15.98a3.418,3.418,0,0,0,3.51-3.3v-2.1A0.568,0.568,0,0,0,1596.41,388.045Zm-3.55,2.168h-14.72a0.552,0.552,0,1,0,0,1.1h14.72A0.552,0.552,0,1,0,1592.86,390.213Zm-1.43-7.743a0.618,0.618,0,0,0-.83-0.044l-4.51,3.791V375.55a0.591,0.591,0,0,0-1.18,0v10.667l-4.51-3.791a0.618,0.618,0,0,0-.83.044,0.533,0.533,0,0,0,.05.777l4.9,4.118a1.545,1.545,0,0,0,1.96,0l4.9-4.119A0.533,0.533,0,0,0,1591.43,382.47Z" transform="translate(-1574 -375)"/>
</svg>
