<svg xmlns="http://www.w3.org/2000/svg" width="22" height="20" viewBox="0 0 22 20">
  <defs>
    <style>
      .cls-1 {
        fill: #fff;
        fill-rule: evenodd;
      }
    </style>
  </defs>
  <path id="down.svg" class="cls-1" d="M535.831,1061.71a0.489,0.489,0,0,0-.675,0l-10.171,10.14-10.171-10.14a0.489,0.489,0,0,0-.675,0,0.47,0.47,0,0,0,0,.67l10.508,10.48a0.478,0.478,0,0,0,.676,0l10.508-10.48A0.472,0.472,0,0,0,535.831,1061.71Zm0-8.57a0.471,0.471,0,0,0-.675,0l-10.171,10.14-10.171-10.14a0.476,0.476,0,1,0-.675.67l10.508,10.48a0.478,0.478,0,0,0,.676,0l10.508-10.48A0.472,0.472,0,0,0,535.831,1053.14Z" transform="translate(-514 -1053)"/>
</svg>
