<svg xmlns="http://www.w3.org/2000/svg" width="7" height="4" viewBox="0 0 7 4">
  <defs>
    <style>
      .cls-1 {
        fill: #a8aab7;
        fill-rule: evenodd;
      }
    </style>
  </defs>
  <path id="Dropdown_копия_14" data-name="Dropdown копия 14" class="cls-1" d="M644.158,2330.16a0.569,0.569,0,0,1,.786,0l2.932,2.87a0.549,0.549,0,0,1,0,.78,0.57,0.57,0,0,1-.787,0l-2.931-2.87A0.549,0.549,0,0,1,644.158,2330.16Zm2.931,2.87,2.932-2.87a0.569,0.569,0,0,1,.786,0,0.549,0.549,0,0,1,0,.78l-2.931,2.87a0.57,0.57,0,0,1-.787,0A0.549,0.549,0,0,1,647.089,2333.03Z" transform="translate(-644 -2330)"/>
</svg>
