<svg xmlns="http://www.w3.org/2000/svg" width="14" height="17" viewBox="0 0 14 17">
  <defs>
    <style>
      .cls-1 {
        fill: #788699;
        fill-rule: evenodd;
      }
    </style>
  </defs>
  <path id="file.svg" class="cls-1" d="M379.78,1728.2l-3.3-4.7a1.186,1.186,0,0,0-.96-0.5h-8.34a1.193,1.193,0,0,0-1.18,1.2v14.6a1.193,1.193,0,0,0,1.18,1.2h11.639a1.193,1.193,0,0,0,1.181-1.2v-9.91A1.176,1.176,0,0,0,379.78,1728.2Zm-4.351-3.85h0.013l2.694,3.83h-2.707v-3.83Zm3.24,14.3H367.331v-14.3H374.1v4.43a0.549,0.549,0,0,0,0,.07,0.016,0.016,0,0,1,0,.01,0.677,0.677,0,0,0,.666.68h3.9v9.11Zm-7.322-12.99h-2.13a0.675,0.675,0,0,0,0,1.35h2.13A0.675,0.675,0,0,0,371.347,1725.66Zm5.414,5.37h-7.544a0.675,0.675,0,0,0,0,1.35h7.544A0.675,0.675,0,0,0,376.761,1731.03Zm0,2.21h-7.544a0.675,0.675,0,0,0,0,1.35h7.544A0.675,0.675,0,0,0,376.761,1733.24Zm0,2.3h-7.544a0.675,0.675,0,0,0,0,1.35h7.544A0.675,0.675,0,0,0,376.761,1735.54Z" transform="translate(-366 -1723)"/>
</svg>
