<svg xmlns="http://www.w3.org/2000/svg" width="15" height="15" viewBox="0 0 15 15">
  <defs>
    <style>
      .cls-1 {
        fill: #788699;
        fill-rule: evenodd;
      }
    </style>
  </defs>
  <path id="folder.svg" class="cls-1" d="M345.5,1909.38h-4.375a0.624,0.624,0,0,0-.625.62v2.5a0.618,0.618,0,0,0,.625.62H345.5a0.618,0.618,0,0,0,.625-0.62V1910A0.624,0.624,0,0,0,345.5,1909.38Zm-0.625,2.5H341.75v-1.26h3.125v1.26h0Zm2.5-10.01h-5.928l-1.149-1.61a0.637,0.637,0,0,0-.509-0.26h-4.914a0.626,0.626,0,0,0-.625.63v1.25l-0.622-.01a0.628,0.628,0,0,0-.628.63v11.88a0.624,0.624,0,0,0,.625.62h13.75a0.624,0.624,0,0,0,.625-0.62V1902.5A0.626,0.626,0,0,0,347.375,1901.87Zm-11.875-.62h3.967l1.149,1.61a0.618,0.618,0,0,0,.509.27h5.625v0.62h-7.168l-1.064-1.58-0.022-.03h0l-0.021-.03c-0.015-.02-0.032-0.03-0.049-0.05h0a0.243,0.243,0,0,1-.014-0.02,0.014,0.014,0,0,1-.015-0.01s-0.006,0-.01-0.01-0.013-.01-0.02-0.01-0.01-.01-0.015-0.01-0.011-.01-0.017-0.01-0.011-.01-0.016-0.01-0.011-.01-0.016-0.01a0.013,0.013,0,0,1-.014-0.01,0.02,0.02,0,0,1-.02-0.01H338.25c-0.008,0-.016-0.01-0.024-0.01a0.012,0.012,0,0,1-.013-0.01h-0.022a0.013,0.013,0,0,0-.013-0.01h-0.024a0.017,0.017,0,0,0-.018-0.01h-0.019a0.021,0.021,0,0,1-.02-0.01H338l-2.5-.02v-0.63h0Zm-1.25,12.5v-10.62h0.622l2.795,0.01,1.065,1.58a0.61,0.61,0,0,0,.518.28h7.5v8.75h-12.5Z" transform="translate(-333 -1900)"/>
</svg>
