<svg xmlns="http://www.w3.org/2000/svg" width="22.031" height="22" viewBox="0 0 22.031 22">
  <defs>
    <style>
      .cls-1 {
        fill: #fff;
        fill-rule: evenodd;
      }
    </style>
  </defs>
  <path id="pen.svg" class="cls-1" d="M339.485,1055.47l-2.941-2.93a1.826,1.826,0,0,0-1.3-.54,1.77,1.77,0,0,0-1.3.54l-1.97,1.96a1.227,1.227,0,0,0-1.151.24l-0.847.85a1.154,1.154,0,0,0-.213,1.27l-9.519,9.47a0.268,0.268,0,0,0-.062.09v0.03a0.349,0.349,0,0,1-.062.09h0l-1.695,5.14h0l-0.182.54-0.183.54c0,0.03,0,.06-0.03.06a0.988,0.988,0,0,0,.089.7,0.785,0.785,0,0,0,.09.15,0.991,0.991,0,0,0,.758.33h0.21c0.031,0,.062,0,0.062-0.03l0.758-.24,5.455-1.78h0a0.5,0.5,0,0,0,.213-0.12l9.548-9.51a0.832,0.832,0,0,0,.393.06,1.108,1.108,0,0,0,.788-0.33l0.848-.84a1.085,1.085,0,0,0,.241-1.18l1.97-1.96A1.793,1.793,0,0,0,339.485,1055.47Zm-14.156,15.15-1.543-1.54,9.062-9.05,1.546,1.54Zm6.73-11.38L323,1068.3l-1.546-1.57,9.062-9.02Zm-11.7,13.19-0.757-.75,1.3-3.93,1.7,1.7h0l1.7,1.69Zm15.458-11.31a0.109,0.109,0,0,0-.062-0.07l-4.7-4.7a0.6,0.6,0,0,0-.151-0.13l0.667-.69,0.062,0.06h0l4.76,4.74a0.169,0.169,0,0,0,.09.06Zm2.879-3.81-1.908,1.9-3.971-3.98,1.908-1.9a0.756,0.756,0,0,1,1.03,0l2.941,2.93A0.778,0.778,0,0,1,338.7,1057.31Z" transform="translate(-318 -1052)"/>
</svg>
