<svg xmlns="http://www.w3.org/2000/svg" width="16" height="20" viewBox="0 0 16 20">
  <metadata><?xpacket begin="﻿" id="W5M0MpCehiHzreSzNTczkc9d"?>
<x:xmpmeta xmlns:x="adobe:ns:meta/" x:xmptk="Adobe XMP Core 5.6-c142 79.160924, 2017/07/13-01:06:39        ">
   <rdf:RDF xmlns:rdf="http://www.w3.org/1999/02/22-rdf-syntax-ns#">
      <rdf:Description rdf:about=""/>
   </rdf:RDF>
</x:xmpmeta>
                                                                                                    
                                                                                                    
                                                                                                    
                                                                                                    
                                                                                                    
                                                                                                    
                                                                                                    
                                                                                                    
                                                                                                    
                                                                                                    
                                                                                                    
                                                                                                    
                                                                                                    
                                                                                                    
                                                                                                    
                                                                                                    
                                                                                                    
                                                                                                    
                                                                                                    
                                                                                                    
                           
<?xpacket end="w"?></metadata>
<defs>
    <style>
      .cls-1 {
        fill: #86d2a1;
        fill-rule: evenodd;
      }
    </style>
  </defs>
  <path id="Forma_1" data-name="Forma 1" class="cls-1" d="M1653.74,379.4h-3.08a2.675,2.675,0,0,0-5.32,0h-3.09a2.279,2.279,0,0,0-2.26,2.284V381.8a2.3,2.3,0,0,0,1.43,2.122v10.792a2.279,2.279,0,0,0,2.26,2.285h8.63a2.273,2.273,0,0,0,2.26-2.285V383.923A2.282,2.282,0,0,0,1656,381.8v-0.118A2.272,2.272,0,0,0,1653.74,379.4Zm-5.74-1.313a1.6,1.6,0,0,1,1.57,1.313h-3.15A1.615,1.615,0,0,1,1648,378.086Zm5.5,16.629a1.2,1.2,0,0,1-1.19,1.2h-8.63a1.2,1.2,0,0,1-1.19-1.2v-10.63h11.01v10.63Zm1.43-12.914a1.2,1.2,0,0,1-1.19,1.2h-11.49a1.193,1.193,0,0,1-1.18-1.2v-0.118a1.193,1.193,0,0,1,1.18-1.2h11.49a1.2,1.2,0,0,1,1.19,1.2V381.8Zm-9.81,12.73a0.54,0.54,0,0,0,.54-0.542v-6.1a0.535,0.535,0,1,0-1.07,0v6.1A0.538,0.538,0,0,0,1645.12,394.531Zm2.88,0a0.538,0.538,0,0,0,.53-0.542v-6.1a0.535,0.535,0,1,0-1.07,0v6.1A0.54,0.54,0,0,0,1648,394.531Zm2.87,0a0.54,0.54,0,0,0,.54-0.542v-6.1a0.535,0.535,0,1,0-1.07,0v6.1A0.538,0.538,0,0,0,1650.87,394.531Z" transform="translate(-1640 -377)"/>
</svg>
