<svg xmlns="http://www.w3.org/2000/svg" width="21.969" height="20" viewBox="0 0 21.969 20">
  <defs>
    <style>
      .cls-1 {
        fill: #fff;
        fill-rule: evenodd;
      }
    </style>
  </defs>
  <path id="up.svg" class="cls-1" d="M448.14,1065.27a0.472,0.472,0,0,0,.676,0l10.17-10.12,10.171,10.12a0.476,0.476,0,0,0,.676-0.67l-10.509-10.46a0.493,0.493,0,0,0-.338-0.14,0.487,0.487,0,0,0-.337.14L448.14,1064.6A0.472,0.472,0,0,0,448.14,1065.27Zm0,8.56a0.472,0.472,0,0,0,.676,0l10.17-10.12,10.171,10.12a0.476,0.476,0,0,0,.676-0.67l-10.509-10.46a0.493,0.493,0,0,0-.338-0.14,0.487,0.487,0,0,0-.337.14l-10.509,10.46A0.472,0.472,0,0,0,448.14,1073.83Z" transform="translate(-448.031 -1054)"/>
</svg>
